<svg id="logo" xmlns="http://www.w3.org/2000/svg" width="160" height="45.706" viewBox="0 0 160 45.706">
  <g id="グループ_2086" data-name="グループ 2086">
    <path id="パス_913" data-name="パス 913" d="M101.877,373.418c-.57,3.122,1.027,4.124,3.8,4.124,1.966,0,4.169-.746,4.614-2.712.531-2.338-2.946-2.784-6.317-3.866-3.333-1.075-6.7-2.785-5.6-7.654,1.316-5.792,7.336-8.062,12.038-8.062,4.981,0,9.419,2.566,8.1,8.553h-6.525c.652-2.416-1.311-3.2-3.309-3.2-1.406,0-3.277.516-3.672,2.265-.464,2.043,3.067,2.415,6.469,3.5,3.372,1.074,6.614,2.858,5.529,7.652-1.524,6.721-7.417,8.876-12.924,8.876-5.756,0-10.236-2.673-8.732-9.473Z" transform="translate(-84.716 -337.186)" fill="#004892"/>
    <path id="パス_914" data-name="パス 914" d="M167.906,356.061h6.524l-6.012,26.526h-6.529Z" transform="translate(-105.598 -336.881)" fill="#004892"/>
    <path id="パス_915" data-name="パス 915" d="M133.321,356.06h11.714c4.335-.071,8.8,1.115,7.547,6.65a8.048,8.048,0,0,1-4.511,5.35c2.483.818,3.575,3.274,2.893,6.28-1.432,6.319-6.253,8.246-11.622,8.246H127.31Zm4.16,10.442h5.05a3.258,3.258,0,0,0,3.237-2.526c.442-1.932-.716-2.566-2.082-2.566h-5.052Zm-2.393,10.547h5.23c2.07,0,3.681-.781,4.182-2.968.531-2.343-.836-3.12-2.8-3.12h-5.226Z" transform="translate(-94.794 -336.88)" fill="#004892"/>
    <path id="パス_916" data-name="パス 916" d="M157.966,336.945c-3.607-9.579-24.248-10.673-46.093-2.446-15.58,5.872-27.565,14.9-31.854,23.072,5.928-6.194,15.5-12.278,27.056-16.631,21.849-8.235,42.488-7.138,46.1,2.444,1.039,2.748.556,5.9-1.169,9.187C157.282,347.053,159.668,341.458,157.966,336.945Z" transform="translate(-80.019 -328.979)" fill="#dd0321"/>
  </g>
  <g id="グループ_2087" data-name="グループ 2087" transform="translate(83.081 24.753)">
    <path id="パス_917" data-name="パス 917" d="M200.852,385.294l3.977-20.46h9.242a11.565,11.565,0,0,1,4.13.551,3.5,3.5,0,0,1,1.939,1.947,5.18,5.18,0,0,1,.268,3.084,6.335,6.335,0,0,1-2.149,3.67,8.968,8.968,0,0,1-4.805,1.9A5.521,5.521,0,0,1,214.918,377a10.719,10.719,0,0,1,1.76,2.721l2.543,5.569h-3.469l-1.931-4.257a29.868,29.868,0,0,0-1.443-2.819,4.647,4.647,0,0,0-1.134-1.368,3.368,3.368,0,0,0-1.152-.544,8.081,8.081,0,0,0-1.517-.1h-3.2l-1.766,9.085Zm4.98-11.43h5.928a9.769,9.769,0,0,0,3.032-.384,4.105,4.105,0,0,0,1.86-1.228,3.986,3.986,0,0,0,.911-1.836,2.553,2.553,0,0,0-.61-2.387,4.363,4.363,0,0,0-3.209-.934h-6.6Z" transform="translate(-200.852 -364.804)" fill="#6a6a6a"/>
    <path id="パス_918" data-name="パス 918" d="M241.471,382.93l2.582.321a8.29,8.29,0,0,1-3,3.531,8.2,8.2,0,0,1-4.566,1.256,5.766,5.766,0,0,1-4.864-2q-1.552-2-.849-5.617a9.946,9.946,0,0,1,3.091-5.806,8.093,8.093,0,0,1,5.492-2.065,5.345,5.345,0,0,1,4.555,2.024q1.526,2.023.813,5.694c-.03.149-.078.372-.145.67h-11.26a4.859,4.859,0,0,0,.681,3.74,3.465,3.465,0,0,0,2.9,1.3,4.626,4.626,0,0,0,2.543-.725A6.359,6.359,0,0,0,241.471,382.93Zm-7.613-4.061h8.431a4.325,4.325,0,0,0-.421-2.8,3.2,3.2,0,0,0-2.888-1.452,4.935,4.935,0,0,0-3.19,1.159A5.722,5.722,0,0,0,233.857,378.869Z" transform="translate(-210.131 -367.461)" fill="#6a6a6a"/>
    <path id="パス_919" data-name="パス 919" d="M253.179,387.7l2.882-14.821h2.289l-.4,2.079a7.071,7.071,0,0,1,2.231-1.751,6.143,6.143,0,0,1,2.816-.664,4.385,4.385,0,0,1,2.618.684,2.83,2.83,0,0,1,1.142,1.912,6.79,6.79,0,0,1,5.168-2.6,3.875,3.875,0,0,1,3.218,1.221q.971,1.222.477,3.761L273.638,387.7h-2.545l1.815-9.336a6.642,6.642,0,0,0,.173-2.171,1.622,1.622,0,0,0-.7-1.068,2.475,2.475,0,0,0-1.457-.4,4.34,4.34,0,0,0-2.847,1.039,5.529,5.529,0,0,0-1.7,3.329L264.71,387.7h-2.56l1.872-9.63a3.814,3.814,0,0,0-.138-2.512,1.959,1.959,0,0,0-1.885-.837,4.354,4.354,0,0,0-2.106.558,4.21,4.21,0,0,0-1.647,1.632,10.287,10.287,0,0,0-1.015,3.1l-1.495,7.69Z" transform="translate(-217.201 -367.613)" fill="#6a6a6a"/>
    <path id="パス_920" data-name="パス 920" d="M289.324,385.294l2.881-14.821h2.559l-2.881,14.821Zm3.415-17.571.562-2.889h2.56l-.562,2.889Z" transform="translate(-228.493 -364.804)" fill="#6a6a6a"/>
    <path id="パス_921" data-name="パス 921" d="M306.885,383.256l-.062,2.219a10.269,10.269,0,0,1-1.977.224,3.958,3.958,0,0,1-2.077-.432,1.852,1.852,0,0,1-.859-1.138,8.743,8.743,0,0,1,.263-2.966l1.658-8.527h-1.876l.38-1.953h1.877l.713-3.671,2.838-1.507-1.006,5.178h2.573l-.38,1.953h-2.573L304.69,381.3a4.275,4.275,0,0,0-.133,1.382.8.8,0,0,0,.346.488,1.532,1.532,0,0,0,.84.182A9.008,9.008,0,0,0,306.885,383.256Z" transform="translate(-232.41 -365.324)" fill="#6a6a6a"/>
  </g>
</svg>
